<svg xmlns="http://www.w3.org/2000/svg" xmlns:xlink="http://www.w3.org/1999/xlink" width="42" height="41.438" viewBox="0 0 42 41.438">
  <defs>
    <filter id="icons8_human_resources" x="0" y="0" width="42" height="41.438" filterUnits="userSpaceOnUse">
      <feOffset dy="3" input="SourceAlpha"/>
      <feGaussianBlur stdDeviation="3" result="blur"/>
      <feFlood flood-opacity="0.161"/>
      <feComposite operator="in" in2="blur"/>
      <feComposite in="SourceGraphic"/>
    </filter>
  </defs>
  <g transform="matrix(1, 0, 0, 1, 0, 0)" filter="url(#icons8_human_resources)">
    <path id="icons8_human_resources-2" data-name="icons8_human_resources" d="M24.551,12.9A6.825,6.825,0,0,0,22.1,13.937c-1.09.545-2.071,1.09-2.725,1.472a3.217,3.217,0,0,1,.109.763,3.28,3.28,0,0,1-3.27,3.27H12.124a.818.818,0,1,1,0-1.635h4.033a1.606,1.606,0,0,0,1.635-1.635,1.562,1.562,0,0,0-.545-1.2,2.385,2.385,0,0,0-1.363-.436h-2.78a9.268,9.268,0,0,1-2.725-.327,8.9,8.9,0,0,0-1.962-.218c-3.979,0-6.268,4.906-6.377,5.124a.746.746,0,0,0,.109.818l3.815,5.178a.777.777,0,0,0,.654.327h.164a.819.819,0,0,0,.654-.6,2.036,2.036,0,0,1,1.908-1.581,30.682,30.682,0,0,1,3.216.273,32.818,32.818,0,0,0,3.325.273c1.526,0,2.616-1.145,5.723-4.361,3.979-4.088,4.361-4.415,4.361-5.233A1.353,1.353,0,0,0,24.551,12.9M13.977,2A2.725,2.725,0,1,0,16.7,4.725,2.725,2.725,0,0,0,13.977,2ZM16.43,8.541H11.524a1.931,1.931,0,0,0-1.908,1.908v.273c0,1.581,1.853,2.725,4.361,2.725s4.361-1.145,4.361-2.725v-.273A1.931,1.931,0,0,0,16.43,8.541Z" transform="translate(7.03 4)" fill="#fff"/>
  </g>
</svg>
