<svg xmlns="http://www.w3.org/2000/svg" width="26" height="26" viewBox="0 0 26 26">
  <path id="icons8_Email_Sign" d="M18.915,16.14c-1.455,0-1.93,1.455-1.93,2.84,0,1.725.61,2.81,1.695,2.81a2.428,2.428,0,0,0,1.625-.61v-4.4A1.653,1.653,0,0,0,18.915,16.14Zm0,0c-1.455,0-1.93,1.455-1.93,2.84,0,1.725.61,2.81,1.695,2.81a2.428,2.428,0,0,0,1.625-.61v-4.4A1.653,1.653,0,0,0,18.915,16.14ZM19,6A13,13,0,1,0,32,19,13,13,0,0,0,19,6Zm5.5,18a3.982,3.982,0,0,1-3.17-1.42l-.18.255a4.129,4.129,0,0,1-2.91,1.185c-2.2,0-3.42-1.9-3.42-5.04,0-3.25,1.86-4.705,4.095-4.705a2.2,2.2,0,0,1,1.525.68V14.38H22.4V20a1.965,1.965,0,0,0,2.1,2c2.255,0,2.5-2.1,2.5-3a8,8,0,1,0-8,8v2A10,10,0,1,1,29,19C29,21.49,27.61,24,24.5,24Zm-5.585-7.86c-1.455,0-1.93,1.455-1.93,2.84,0,1.725.61,2.81,1.695,2.81a2.428,2.428,0,0,0,1.625-.61v-4.4A1.653,1.653,0,0,0,18.915,16.14Z" transform="translate(-6 -6)" fill="#e30f0f"/>
</svg>
