<svg xmlns="http://www.w3.org/2000/svg" width="75.107" height="75.107" viewBox="0 0 75.107 75.107">
  <path id="icons8_clock" d="M37.741.188A37.554,37.554,0,1,0,75.295,37.741,37.561,37.561,0,0,0,37.741.188ZM34.627,7.7c.206-.023.435.011.641,0a3.3,3.3,0,0,0-.824,2.2v1.466a3.3,3.3,0,1,0,6.595,0V9.9a3.3,3.3,0,0,0-.824-2.2,30.085,30.085,0,0,1,27.57,27.57,3.3,3.3,0,0,0-2.2-.824H64.12a1.962,1.962,0,0,0-.366,0,3.3,3.3,0,1,0,.366,6.595h1.466a3.3,3.3,0,0,0,2.2-.824,30.084,30.084,0,0,1-27.57,27.57,3.3,3.3,0,0,0,.824-2.2V64.12a3.3,3.3,0,1,0-6.595,0v1.466a3.3,3.3,0,0,0,.824,2.2A30.094,30.094,0,0,1,7.7,40.306a3.255,3.255,0,0,0,2.2.733h1.466a3.3,3.3,0,1,0,0-6.595H9.9a1.962,1.962,0,0,0-.366,0,3.312,3.312,0,0,0-1.832.641A30.141,30.141,0,0,1,34.627,7.7Zm3.114,9.709a1.948,1.948,0,0,0-1.923,1.832l-.733,14.747a4.6,4.6,0,0,0,2.656,8.335c.16,0,.3-.08.458-.091L47.176,50.2a2.244,2.244,0,0,0,3.114-3.114l-7.969-9.159v-.183a4.557,4.557,0,0,0-2.107-3.847l-.55-14.655A1.949,1.949,0,0,0,37.741,17.407Z" transform="translate(-0.188 -0.188)" fill="#d4eaec"/>
</svg>
