<svg xmlns="http://www.w3.org/2000/svg" xmlns:xlink="http://www.w3.org/1999/xlink" width="46.57" height="46.57" viewBox="0 0 46.57 46.57">
  <defs>
    <linearGradient id="linear-gradient" x1="0.5" x2="0.5" y2="1" gradientUnits="objectBoundingBox">
      <stop offset="0" stop-color="#08a5ab"/>
      <stop offset="1" stop-color="#0b2349"/>
    </linearGradient>
  </defs>
  <path id="icons8_clock" d="M23.473.188A23.285,23.285,0,1,0,46.758,23.473,23.29,23.29,0,0,0,23.473.188ZM21.542,4.845c.128-.014.27.007.4,0a2.044,2.044,0,0,0-.511,1.363v.909a2.045,2.045,0,1,0,4.089,0V6.208a2.045,2.045,0,0,0-.511-1.363A18.654,18.654,0,0,1,42.1,21.939a2.044,2.044,0,0,0-1.363-.511h-.909a1.216,1.216,0,0,0-.227,0,2.048,2.048,0,0,0,.227,4.089h.909a2.045,2.045,0,0,0,1.363-.511A18.654,18.654,0,0,1,25.006,42.1a2.045,2.045,0,0,0,.511-1.363v-.909a2.045,2.045,0,1,0-4.089,0v.909a2.044,2.044,0,0,0,.511,1.363A18.66,18.66,0,0,1,4.845,25.063a2.018,2.018,0,0,0,1.363.454h.909a2.045,2.045,0,1,0,0-4.089H6.208a1.216,1.216,0,0,0-.227,0,2.053,2.053,0,0,0-1.136.4A18.689,18.689,0,0,1,21.542,4.845Zm1.931,6.02A1.208,1.208,0,0,0,22.28,12l-.454,9.144a2.85,2.85,0,0,0,1.647,5.168c.1,0,.185-.05.284-.057L29.322,31.2a1.391,1.391,0,0,0,1.931-1.931l-4.941-5.679v-.114a2.825,2.825,0,0,0-1.306-2.385L24.665,12A1.208,1.208,0,0,0,23.473,10.865Z" transform="translate(-0.188 -0.188)" fill="url(#linear-gradient)"/>
</svg>
