<svg xmlns="http://www.w3.org/2000/svg" xmlns:xlink="http://www.w3.org/1999/xlink" width="42" height="42" viewBox="0 0 42 42">
  <defs>
    <filter id="icons8_storage" x="0" y="0" width="42" height="42" filterUnits="userSpaceOnUse">
      <feOffset dy="3" input="SourceAlpha"/>
      <feGaussianBlur stdDeviation="3" result="blur"/>
      <feFlood flood-opacity="0.161"/>
      <feComposite operator="in" in2="blur"/>
      <feComposite in="SourceGraphic"/>
    </filter>
  </defs>
  <g transform="matrix(1, 0, 0, 1, 0, 0)" filter="url(#icons8_storage)">
    <path id="icons8_storage-2" data-name="icons8_storage" d="M16,4A12,12,0,1,0,28,16,12.014,12.014,0,0,0,16,4Zm0,6.6A5.4,5.4,0,1,1,10.6,16,5.406,5.406,0,0,1,16,10.6Zm7.2,12.619-2.12-2.12A7.2,7.2,0,0,0,16,8.8v-3a10.195,10.195,0,0,1,7.2,17.419Z" transform="translate(5 2)" fill="#fff"/>
  </g>
</svg>
