<svg xmlns="http://www.w3.org/2000/svg" width="81.123" height="81.183" viewBox="0 0 81.123 81.183">
  <path id="icons8_analyzing_skill" d="M50.665,2a4.059,4.059,0,0,0-4.059,4.059V34.473H37.877a2.97,2.97,0,0,0-2.806,3.916,12.207,12.207,0,0,0,11.535,8.261H70.96A12.24,12.24,0,0,0,83.138,34.473V6.059A4.059,4.059,0,0,0,79.079,2Zm-12.177.285a32.442,32.442,0,0,0-28.2,28.6L2.6,42.948a3.7,3.7,0,0,0,1.689,5.407L10.073,50.8v12.09a8.116,8.116,0,0,0,8.118,8.118H26.31V83.183H62.842V71.98c0-8.845,2.5-13.2,5.233-17.212H46.606a20.3,20.3,0,0,1-20.3-20.3,8.116,8.116,0,0,1,8.118-8.118h4.059Zm16.237,7.833h20.3V34.473a4,4,0,0,1-4.059,4.059,4.041,4.041,0,0,1-2.949-1.268c-.686-.731-.68-2.791-3.472-2.791H54.724Z" transform="translate(-2.015 -2)" fill="#d4eaec"/>
</svg>
