<svg xmlns="http://www.w3.org/2000/svg" width="21.279" height="25.148" viewBox="0 0 21.279 25.148">
  <path id="icons8_password" d="M12.64,0A7.719,7.719,0,0,0,6.685,2.267,7.86,7.86,0,0,0,4.9,7.647V8.705H7.8V7.647A5.027,5.027,0,0,1,8.831,4.2c.68-.759,1.776-1.3,3.809-1.3s3.132.518,3.809,1.27a5.093,5.093,0,0,1,1.028,3.476V8.705h2.9V7.647a7.894,7.894,0,0,0-1.783-5.411A7.73,7.73,0,0,0,12.64,0ZM4.9,9.672a2.9,2.9,0,0,0-2.9,2.9v9.672a2.9,2.9,0,0,0,2.9,2.9H20.378a2.9,2.9,0,0,0,2.9-2.9V12.574a2.9,2.9,0,0,0-2.9-2.9Zm1.934,5.8A1.934,1.934,0,1,1,4.9,17.41,1.933,1.933,0,0,1,6.836,15.476Zm5.8,0a1.934,1.934,0,1,1-1.934,1.934A1.933,1.933,0,0,1,12.64,15.476Zm5.8,0a1.934,1.934,0,1,1-1.934,1.934A1.933,1.933,0,0,1,18.443,15.476Z" transform="translate(-2)" fill="#e30f0f"/>
</svg>
