<svg xmlns="http://www.w3.org/2000/svg" xmlns:xlink="http://www.w3.org/1999/xlink" width="206.41" height="50.921" viewBox="0 0 206.41 50.921">
  <defs>
    <linearGradient id="linear-gradient" x1="0.5" x2="0.5" y2="1" gradientUnits="objectBoundingBox">
      <stop offset="0" stop-color="#fff"/>
      <stop offset="1" stop-color="#c4f2f4"/>
    </linearGradient>
  </defs>
  <g id="Group_52519" data-name="Group 52519" transform="translate(-36.96 -22.08)">
    <path id="Liste_des_rendez-vous" data-name="Liste des rendez-vous" d="M11.725-24.675a14.263,14.263,0,0,1,6.808,1.557,10.943,10.943,0,0,1,4.5,4.358,12.838,12.838,0,0,1,1.575,6.4,12.656,12.656,0,0,1-1.592,6.37A11.289,11.289,0,0,1,18.5-1.593,13.932,13.932,0,0,1,11.725,0H1.96V-24.675ZM11.2-6.055A6.544,6.544,0,0,0,15.925-7.7a6.147,6.147,0,0,0,1.715-4.655,6.253,6.253,0,0,0-1.715-4.707A6.5,6.5,0,0,0,11.2-18.725H8.82v12.67Zm23.345-18.62V0h-6.86V-24.675Zm19.67,8.12a3.972,3.972,0,0,0-1.628-1.505,5.3,5.3,0,0,0-2.432-.525,5.166,5.166,0,0,0-4.077,1.68A6.564,6.564,0,0,0,44.59-12.39a6.743,6.743,0,0,0,1.593,4.847A6.125,6.125,0,0,0,50.82-5.88a5.29,5.29,0,0,0,5.145-3.255h-6.9V-14.07H61.88v6.65a12.557,12.557,0,0,1-2.362,3.675A12.11,12.11,0,0,1,55.58-.928a12.767,12.767,0,0,1-5.425,1.1,13.235,13.235,0,0,1-6.562-1.593,11.076,11.076,0,0,1-4.41-4.445,13.4,13.4,0,0,1-1.558-6.528,13.326,13.326,0,0,1,1.558-6.492,11.106,11.106,0,0,1,4.392-4.445A13.136,13.136,0,0,1,50.12-24.92a12.651,12.651,0,0,1,7.7,2.24,9.506,9.506,0,0,1,3.78,6.125Zm17.6-8.12V0H64.96V-24.675Zm26,0V0h-6.86V-9.905H82.6V0H75.74V-24.675H82.6V-15.4h8.365v-9.275ZM108.6-19.18v4.025h7.875V-9.94H108.6V-5.5h8.925V0H101.745V-24.675H117.53v5.495Zm27.93,15.155h-8.75L126.455,0h-7.21l8.995-24.675h7.91L145.11,0h-7.245Zm-1.715-5.25-2.66-7.98-2.625,7.98ZM154.21-5.25h7.665V0H147.35V-24.675h6.86Zm28.91-19.425v5.46h-6.58V0h-6.86V-19.215h-6.51v-5.46Zm24.64,0V0H200.9V-9.905h-8.365V0h-6.86V-24.675h6.86V-15.4H200.9v-9.275Z" transform="translate(35 47)" fill="url(#linear-gradient)"/>
    <g id="Group_52367" data-name="Group 52367" transform="translate(13 2.082)">
      <g id="mediot" transform="translate(170.104 49.325)">
        <path id="Path_46193" data-name="Path 46193" d="M1226.141,45.717c-.448-.961-.882-1.875-1.3-2.8-.675-1.487-1.419-2.937-2.2-4.369a1.666,1.666,0,0,0-1.492-1,1.618,1.618,0,0,0-1.47,1.023c-.913,1.865-1.943,3.666-2.975,5.466-.49.854-1.006,1.694-1.547,2.6a6.435,6.435,0,0,1-.312-1.535,12.48,12.48,0,0,1,1.221-7.737,7.535,7.535,0,0,1,5.165-4.121,4.859,4.859,0,0,1,3.237.542,8.144,8.144,0,0,0,2.313.885,5.831,5.831,0,0,0,2.49-.317c1.272-.327,2.5-.821,3.806-1.028a4.337,4.337,0,0,1,5.05,3.209,7.55,7.55,0,0,1-.135,4.5,18.1,18.1,0,0,1-2.174,4.8c-.468-.735-.928-1.442-1.371-2.16q-1.027-1.665-1.926-3.4a3.3,3.3,0,0,0-.573-.8,1.388,1.388,0,0,0-2.232.08,13.594,13.594,0,0,0-1.256,2.05c-.723,1.268-1.425,2.548-2.136,3.822C1226.271,45.513,1226.218,45.592,1226.141,45.717Z" transform="translate(-1214.67 -33.22)" fill="#d40c03"/>
        <path id="Path_46194" data-name="Path 46194" d="M1315.441,567.44a31.382,31.382,0,0,1,1.584,2.984q1.152,2.469,2.284,4.948a1.162,1.162,0,0,0,.987.832,1.132,1.132,0,0,0,1.133-.758q1.645-3.16,3.474-6.218c.249-.417.262-.428.48-.009q1.311,2.516,2.86,4.891c.218.335.417.683.657,1a.434.434,0,0,1-.013.628,20.693,20.693,0,0,1-6.726,5.886,10.533,10.533,0,0,1-4.484,1.331,6.293,6.293,0,0,1-3.322-1.005,9.663,9.663,0,0,1-4.218-4.823.441.441,0,0,1,.005-.474q2.785-4.392,5.163-9.017A2.355,2.355,0,0,1,1315.441,567.44Z" transform="translate(-1308.941 -561.366)" fill="#d40c03"/>
        <path id="Path_46195" data-name="Path 46195" d="M4112.151,439.649v-3.031c0-.2-.008-.4,0-.6a.6.6,0,0,1,.592-.618.617.617,0,0,1,.741.5,1.839,1.839,0,0,1,.033.428q0,3,0,6a3.679,3.679,0,0,1-2.719,3.646,3.727,3.727,0,0,1-4.8-3.852,3.494,3.494,0,0,1,2.381-3.4,3.27,3.27,0,0,1,3.421.714A.571.571,0,0,0,4112.151,439.649Zm.04,2.633a2.439,2.439,0,0,0-2.434-2.562,2.5,2.5,0,0,0-2.452,2.646,2.449,2.449,0,0,0,2.51,2.524,2.419,2.419,0,0,0,2.375-2.608Z" transform="translate(-4072.819 -430.829)" fill="#d31008"/>
        <path id="Path_46196" data-name="Path 46196" d="M3391.191,713.526c-.777,0-1.553.016-2.329-.007-.387-.011-.395.14-.287.434a2.673,2.673,0,0,0,3.605,1.493c.208-.093.4-.215.6-.326a.632.632,0,0,1,.931.2c.21.357.031.574-.266.778-2.1,1.441-5.386.714-6.068-1.979a3.7,3.7,0,0,1,3.009-4.825,3.331,3.331,0,0,1,3.912,3.637c-.014.412-.266.6-.777.607-.777.007-1.553,0-2.33,0Zm1.879-1.1a2.078,2.078,0,0,0-2.485-2,2.241,2.241,0,0,0-2.052,1.734c-.045.16-.031.268.192.267,1.436-.007,2.871,0,4.345,0Z" transform="translate(-3362.297 -701.553)" fill="#d10f08"/>
        <path id="Path_46197" data-name="Path 46197" d="M5317.268,714.782a3.719,3.719,0,1,1-3.725-3.789A3.6,3.6,0,0,1,5317.268,714.782Zm-3.73,2.568a2.424,2.424,0,0,0,2.494-2.589,2.472,2.472,0,1,0-4.937,0,2.415,2.415,0,0,0,2.443,2.592Z" transform="translate(-5262.855 -703.273)" fill="#fff"/>
        <path id="Path_46198" data-name="Path 46198" d="M6069.866,515.688c0,.5-.006,1.006,0,1.509a1.193,1.193,0,0,0,1.367,1.329c.461-.02.787.263.694.732-.078.4-.414.487-.746.51a2.419,2.419,0,0,1-2.488-1.868,5.7,5.7,0,0,1-.077-1.326c0-.834-.011-1.667,0-2.5,0-.264-.074-.361-.34-.343a1,1,0,0,1-.551-.046c-.212-.107-.43-.234-.392-.5a.61.61,0,0,1,.51-.511c.249-.06.6.147.737-.13a2.014,2.014,0,0,0,.029-.808c0-.345-.006-.69,0-1.035a.623.623,0,1,1,1.241-.006c.016.56.013,1.121,0,1.681,0,.218.054.314.289.3.3-.019.6-.011.906,0,.343.009.6.16.6.528,0,.339-.267.5-.571.531a5.508,5.508,0,0,1-.9,0c-.245-.014-.327.071-.319.318.015.546,0,1.092,0,1.639Z" transform="translate(-6011.678 -504.593)" fill="#fff"/>
        <path id="Path_46199" data-name="Path 46199" d="M4997.065,723.272c0,.962,0,1.924,0,2.886,0,.473-.234.772-.606.785s-.647-.3-.648-.788q0-2.93,0-5.859c0-.484.229-.727.655-.715.408.012.6.233.6.717C4997.068,721.291,4997.065,722.281,4997.065,723.272Z" transform="translate(-4952.435 -711.764)" fill="#fff"/>
        <path id="Path_46200" data-name="Path 46200" d="M4977.518,455.74a.94.94,0,0,1,.86.792.918.918,0,0,1-.823.88.935.935,0,0,1-.882-.83A.891.891,0,0,1,4977.518,455.74Z" transform="translate(-4933.517 -450.946)" fill="#fff"/>
      </g>
      <text id="Liste_des_rendez-vous-2" data-name="Liste des rendez-vous" transform="translate(150.266 64.919)" fill="#d4eaec" font-size="16" font-family="TitilliumWeb-SemiBold, Titillium Web" font-weight="600"><tspan x="0" y="0">By</tspan></text>
    </g>
  </g>
</svg>
