<svg xmlns="http://www.w3.org/2000/svg" width="50.225" height="50.225" viewBox="0 0 50.225 50.225">
  <path id="icons8_coronavirus" d="M51.431,23.329a1.794,1.794,0,0,0-1.794,1.794v1.2H47.155a19.032,19.032,0,0,0-4.312-10.4L44.6,14.161l.847.847a1.794,1.794,0,1,0,2.538-2.536L43.756,8.242a1.793,1.793,0,0,0-2.536,2.536l.847.847-1.758,1.758a19.049,19.049,0,0,0-10.4-4.312V6.587h1.2A1.794,1.794,0,0,0,31.1,3H25.123a1.794,1.794,0,0,0,0,3.587h1.2V9.07a19.032,19.032,0,0,0-10.4,4.312l-1.758-1.758.847-.847a1.793,1.793,0,1,0-2.536-2.536L8.242,12.47a1.794,1.794,0,0,0,2.538,2.536l.847-.847,1.758,1.758a19.049,19.049,0,0,0-4.312,10.4H6.587v-1.2a1.794,1.794,0,0,0-3.587,0V31.1a1.794,1.794,0,1,0,3.587,0v-1.2H9.07a19.032,19.032,0,0,0,4.312,10.4l-1.758,1.758-.847-.845a1.793,1.793,0,0,0-2.536,2.536l4.228,4.228a1.794,1.794,0,1,0,2.538-2.536l-.847-.847,1.758-1.758a19.049,19.049,0,0,0,10.4,4.312v2.483h-1.2a1.794,1.794,0,0,0,0,3.587H31.1a1.794,1.794,0,1,0,0-3.587h-1.2V47.155a19.032,19.032,0,0,0,10.4-4.312L42.064,44.6l-.847.847a1.794,1.794,0,0,0,2.538,2.536l4.228-4.228a1.793,1.793,0,1,0-2.536-2.536l-.847.847-1.758-1.758a19.049,19.049,0,0,0,4.312-10.4h2.483v1.2a1.794,1.794,0,0,0,3.587,0V25.124A1.8,1.8,0,0,0,51.431,23.329ZM39.473,28.112a2.99,2.99,0,1,1-2.99-2.99A2.989,2.989,0,0,1,39.473,28.112Zm-11.36-5.381a2.99,2.99,0,1,1,2.99-2.99A2.989,2.989,0,0,1,28.112,22.731ZM31.1,36.483a2.99,2.99,0,1,1-2.99-2.99A2.989,2.989,0,0,1,31.1,36.483Zm-8.371-8.371a2.99,2.99,0,1,1-2.99-2.99A2.989,2.989,0,0,1,22.731,28.112Z" transform="translate(-3 -3)" fill="#d4eaec"/>
</svg>
