<svg xmlns="http://www.w3.org/2000/svg" xmlns:xlink="http://www.w3.org/1999/xlink" width="42" height="42" viewBox="0 0 42 42">
  <defs>
    <filter id="icons8_coronavirus" x="0" y="0" width="42" height="42" filterUnits="userSpaceOnUse">
      <feOffset dy="3" input="SourceAlpha"/>
      <feGaussianBlur stdDeviation="3" result="blur"/>
      <feFlood flood-opacity="0.161"/>
      <feComposite operator="in" in2="blur"/>
      <feComposite in="SourceGraphic"/>
    </filter>
  </defs>
  <g transform="matrix(1, 0, 0, 1, 0, 0)" filter="url(#icons8_coronavirus)">
    <path id="icons8_coronavirus-2" data-name="icons8_coronavirus" d="M26.143,12.714a.857.857,0,0,0-.857.857v.571H24.1a9.094,9.094,0,0,0-2.061-4.97l.84-.84.4.4A.857.857,0,0,0,24.5,7.526L22.475,5.505a.857.857,0,1,0-1.212,1.212l.4.4-.84.84A9.1,9.1,0,0,0,15.858,5.9V4.714h.571a.857.857,0,0,0,0-1.714H13.571a.857.857,0,0,0,0,1.714h.571V5.9a9.094,9.094,0,0,0-4.97,2.061l-.84-.84.4-.4A.857.857,0,0,0,7.526,5.5L5.505,7.525A.857.857,0,0,0,6.718,8.737l.4-.4.84.84A9.1,9.1,0,0,0,5.9,14.142H4.714v-.571a.857.857,0,0,0-1.714,0v2.857a.857.857,0,1,0,1.714,0v-.571H5.9a9.094,9.094,0,0,0,2.061,4.97l-.84.84-.4-.4A.857.857,0,0,0,5.5,22.475L7.525,24.5a.857.857,0,1,0,1.213-1.212l-.4-.4.84-.84a9.1,9.1,0,0,0,4.97,2.061v1.186h-.571a.857.857,0,0,0,0,1.714h2.857a.857.857,0,1,0,0-1.714h-.571V24.1a9.094,9.094,0,0,0,4.97-2.061l.84.84-.4.4A.857.857,0,0,0,22.475,24.5L24.5,22.475a.857.857,0,0,0-1.212-1.212l-.4.4-.84-.84a9.1,9.1,0,0,0,2.061-4.97h1.186v.571a.857.857,0,1,0,1.714,0V13.572A.858.858,0,0,0,26.143,12.714ZM20.429,15A1.429,1.429,0,1,1,19,13.571,1.428,1.428,0,0,1,20.429,15ZM15,12.429A1.429,1.429,0,1,1,16.429,11,1.428,1.428,0,0,1,15,12.429ZM16.429,19A1.429,1.429,0,1,1,15,17.571,1.428,1.428,0,0,1,16.429,19Zm-4-4A1.429,1.429,0,1,1,11,13.571,1.428,1.428,0,0,1,12.429,15Z" transform="translate(6 3)" fill="#fff"/>
  </g>
</svg>
