<svg xmlns="http://www.w3.org/2000/svg" width="52.886" height="66.107" viewBox="0 0 52.886 66.107">
  <path id="icons8_compare_heights" d="M46.309,2a7.933,7.933,0,1,0,7.933,7.933A7.933,7.933,0,0,0,46.309,2ZM14.577,9.933a7.933,7.933,0,1,0,7.933,7.933A7.933,7.933,0,0,0,14.577,9.933ZM43.665,23.154a7.973,7.973,0,0,0-7.933,7.933V46.953a2.645,2.645,0,0,0,2.644,2.681V65.375a2.733,2.733,0,0,0,5.459.181l1.157-17.374a1.32,1.32,0,0,1,2.634.005l1.157,17.369a2.733,2.733,0,0,0,5.459-.181V49.634a2.645,2.645,0,0,0,2.644-2.681V31.087a7.973,7.973,0,0,0-7.933-7.933ZM11.933,31.087A7.973,7.973,0,0,0,4,39.02V52.242a2.645,2.645,0,0,0,2.644,2.681V65.375a2.733,2.733,0,0,0,5.459.181L13.26,53.471a1.32,1.32,0,0,1,2.634.005l1.157,12.08a2.733,2.733,0,0,0,5.459-.181V54.922a2.645,2.645,0,0,0,2.644-2.681V39.02a7.973,7.973,0,0,0-7.933-7.933H11.933Z" transform="translate(-4 -2)" fill="#d4eaec"/>
</svg>
