<svg xmlns="http://www.w3.org/2000/svg" width="104.08" height="67.916" viewBox="0 0 104.08 67.916">
  <g id="Group_52421" data-name="Group 52421" transform="translate(-1154.92 -872.25)">
    <path id="icons8_Doctor_Female" d="M23.708,5a16.662,16.662,0,0,0-7.559,1.624l-2.181,9.567a27.536,27.536,0,0,0,6.778,1.484,3.837,3.837,0,1,1,5.923,0,29.485,29.485,0,0,0,6.778-1.484L31.267,6.624A16.775,16.775,0,0,0,23.708,5Zm0,8.953a1.279,1.279,0,1,0,1.279,1.279A1.279,1.279,0,0,0,23.708,13.953Zm11.261,3.294-4.847,1.816c-.006.09-.031.652-.031.652l.236.288a2.2,2.2,0,0,1,.416,1.3,2.508,2.508,0,0,1-.9,1.791l-.23.179-.1.275c-1.273,3.658-4.112,6.389-5.807,6.389s-4.534-2.731-5.807-6.389l-.1-.275-.23-.179a2.484,2.484,0,0,1-.9-1.791,2.162,2.162,0,0,1,.41-1.291l.249-.295s-.031-.556-.031-.646l.012-.006-4.368-1.637a25.45,25.45,0,0,1-2.667,4.2c0,1.746,4.233,6.657,8.85,8.492l-.169,1.955L9,35.7l.284,1.06a2.558,2.558,0,0,0,2.523,2.137h23.8a2.558,2.558,0,0,0,2.523-2.137l.284-1.06-9.961-3.622-.15-1.724c4.732-1.592,8.192-6.536,8.192-7.444A13.613,13.613,0,0,0,34.969,17.246ZM20.984,30.9a5.1,5.1,0,0,0,2.724.959,5.1,5.1,0,0,0,2.724-.959l.326,3.747a8.169,8.169,0,0,1-3.05,2.328,8.169,8.169,0,0,1-3.05-2.328Z" transform="translate(1220.584 901.143)" fill="#e2f2f3"/>
    <path id="icons8_caduceus" d="M39.813,4a4.261,4.261,0,0,0-2.832,7.433v6.725c2.235,0,2.832,2.832,2.832,2.832s.675-2.832,2.832-2.832V11.433A4.261,4.261,0,0,0,39.813,4Zm-13.1,2.832c-5.144,0-8.4,2.821-11.062,4.867s-4.867,3.628-9.823,3.628H3v3.894l.442.708c3.363,5.431,10.5,9.557,22.212,9.557V23.822c-7.256,0-11.161-1.814-13.982-3.982a24.506,24.506,0,0,0,7.433-3.717c2.854-2.2,4.38-3.628,7.61-3.628a2.752,2.752,0,0,1,1.416.442c.288.221.354.254.354.8a5.306,5.306,0,0,1-.619,1.593,6.46,6.46,0,0,0,0,5.221L32.91,18.07c-.177-.343-.177.221.089-.354a8.5,8.5,0,0,0,1.15-3.982,6.848,6.848,0,0,0-2.566-5.31A7.8,7.8,0,0,0,26.716,6.832Zm26.194,0a7.8,7.8,0,0,0-4.867,1.593,6.847,6.847,0,0,0-2.566,5.31,8.492,8.492,0,0,0,1.151,3.982c.265.575.265.011.088.354l5.044,2.478a6.462,6.462,0,0,0,0-5.221,5.3,5.3,0,0,1-.62-1.593c0-.542.155-.575.443-.8A2.433,2.433,0,0,1,52.91,12.5c3.23,0,4.757,1.427,7.61,3.628a24.506,24.506,0,0,0,7.433,3.717c-2.821,2.168-6.725,3.982-13.982,3.982v5.664c11.714,0,18.849-4.126,22.212-9.557l.442-.708V15.327H73.794c-4.956,0-7.157-1.582-9.823-3.628S58.053,6.832,52.91,6.832ZM34.149,20.9a5.734,5.734,0,0,0-5.664,5.752A11.664,11.664,0,0,0,32.114,35.5c.221.2.475.354.708.531-.144.089-.3.166-.443.266a8.94,8.94,0,0,0-3.894,7.433,10.789,10.789,0,0,0,3.009,7.61,14.739,14.739,0,0,0,2.655,2.124,8.824,8.824,0,0,0-2.92,6.371A9.264,9.264,0,0,0,33.8,65.945c.089.1.177.177.266.266-.089.022-.443.088-.443.088l1.328,5.487a34.232,34.232,0,0,0,4.867-1.77,34.228,34.228,0,0,0,4.867,1.77L46.007,66.3s-.354-.066-.442-.088c.088-.089.177-.166.265-.266A9.264,9.264,0,0,0,48.4,59.839a8.824,8.824,0,0,0-2.92-6.371,14.739,14.739,0,0,0,2.655-2.124,10.789,10.789,0,0,0,3.009-7.61A8.94,8.94,0,0,0,47.246,36.3c-.144-.1-.3-.177-.442-.266.232-.177.486-.332.708-.531a11.625,11.625,0,0,0,3.628-8.849,5.586,5.586,0,0,0-9.823-3.805,5.512,5.512,0,0,0-1.5,3.805,5.513,5.513,0,0,0-1.5-3.805A5.7,5.7,0,0,0,34.149,20.9Zm.531,7.257H44.945c-.277,1.217-.442,2.544-1.15,3.186a12.254,12.254,0,0,1-3.982,1.947,12.253,12.253,0,0,1-3.982-1.947C35.123,30.7,34.957,29.375,34.68,28.159ZM39.813,39.4a21.406,21.406,0,0,1,4.248,1.681c1.04.686,1.416.962,1.416,2.655a4.467,4.467,0,0,1-1.416,3.628A16.5,16.5,0,0,1,39.9,49.928c-.033.022-.056.066-.089.088-.033-.022-.055-.066-.088-.088a16.5,16.5,0,0,1-4.159-2.566,4.467,4.467,0,0,1-1.416-3.628c0-1.693.376-1.969,1.416-2.655A21.406,21.406,0,0,1,39.813,39.4Zm0,17.079a13.666,13.666,0,0,1,1.681,1.062,2.467,2.467,0,0,1,1.239,2.3,3.271,3.271,0,0,1-1.062,2.3,10.1,10.1,0,0,1-1.858,1.593,10.09,10.09,0,0,1-1.858-1.593,3.27,3.27,0,0,1-1.062-2.3,2.467,2.467,0,0,1,1.239-2.3A13.639,13.639,0,0,1,39.813,56.476Z" transform="translate(1167.667 868.25)" fill="#e2f2f3"/>
    <path id="icons8_Medical_Doctor" d="M22.333,5C21.3,5,15.271,6.284,15.271,6.284a24.684,24.684,0,0,0-1.92,9.95h-.006v2.315a3.723,3.723,0,0,0-.642,2.179,4.021,4.021,0,0,0,1.477,3.137,12.126,12.126,0,0,0,2.346,3.666l-.288,4.183L5,35.172l.285,1.706a2.568,2.568,0,0,0,2.533,2.145H36.848a2.568,2.568,0,0,0,2.533-2.145l.285-1.706L28.427,31.714l-.288-4.183a12.127,12.127,0,0,0,2.346-3.666,4.021,4.021,0,0,0,1.477-3.137,3.723,3.723,0,0,0-.642-2.179V16.234h-.006a24.684,24.684,0,0,0-1.92-9.95S23.369,5,22.333,5Zm-.713,3.21h1.427l.11,2.386,2.386.11v1.427l-2.386.11-.11,2.386H21.619l-.11-2.386-2.386-.11V10.706l2.386-.11Zm-6.348,8.6a62.04,62.04,0,0,0,7.061.391,62.04,62.04,0,0,0,7.061-.391v2.355l.234.271a2.059,2.059,0,0,1,.408,1.3,2.558,2.558,0,0,1-.9,1.8L28.9,22.7l-.1.276a12.423,12.423,0,0,1-3.32,4.605,17.135,17.135,0,0,1-1.768,1.428c-.237.165-.436.289-.564.361l-.039.02H21.55l-.039-.02c-.128-.072-.327-.2-.564-.361a17.128,17.128,0,0,1-1.768-1.428,12.423,12.423,0,0,1-3.32-4.605l-.1-.276-.232-.176a2.558,2.558,0,0,1-.9-1.8,2.059,2.059,0,0,1,.408-1.3l.234-.271Zm3.058,12.563c.544.469,1.095.931,1.52,1.226.276.192.514.343.72.459a3.146,3.146,0,0,0,.3.15.806.806,0,0,0,.5.115H23.3a.806.806,0,0,0,.5-.115,3.146,3.146,0,0,0,.3-.15c.206-.115.444-.267.72-.459.425-.3.976-.758,1.52-1.226l.334,4.837L22.333,37.1,18,34.206Z" transform="translate(1149.92 901.143)" fill="#e2f2f3"/>
  </g>
</svg>
