<svg xmlns="http://www.w3.org/2000/svg" xmlns:xlink="http://www.w3.org/1999/xlink" width="47.591" height="53" viewBox="0 0 47.591 53">
  <defs>
    <linearGradient id="linear-gradient" x1="0.5" x2="0.5" y2="1" gradientUnits="objectBoundingBox">
      <stop offset="0" stop-color="#f1a3a3"/>
      <stop offset="1" stop-color="#983333"/>
    </linearGradient>
  </defs>
  <g id="Group_52442" data-name="Group 52442" transform="translate(-9.593 -5)">
    <path id="Path_46239" data-name="Path 46239" d="M48.409,56.046a11.86,11.86,0,0,1,.862,4.234,3.83,3.83,0,1,1-1.764.015c-.074-1.635-.465-4.123-2.065-5.352a15.786,15.786,0,0,0-2.518-.443c-.064,2.865-9.533,9.935-9.533,9.935s-9.472-7.069-9.536-9.934a15.543,15.543,0,0,0-2.787.514c-1.168.925-1.772,2.647-1.8,5.151a1.937,1.937,0,0,1,.791.878,7.319,7.319,0,0,1,3.22,3.623,1.256,1.256,0,0,1,.057.946,11.4,11.4,0,0,1,.8,3.952c0,1.688,0,3.285-1.84,3.695a1.108,1.108,0,0,1-.711.257h-1.23A1.12,1.12,0,0,1,19.234,72.4v-.044a1.125,1.125,0,0,1,1.117-1.075h1.23a1.119,1.119,0,0,1,.368.062.33.33,0,0,0,.1-.038,6.5,6.5,0,0,0,.137-1.738,9.373,9.373,0,0,0-.674-3.259A1.258,1.258,0,0,1,21,65.758c-.746-1.561-1.76-2.569-2.583-2.569-.842,0-1.907,1.091-2.649,2.711a1.276,1.276,0,0,1-.6.608,9.123,9.123,0,0,0-.6,3.058,6.071,6.071,0,0,0,.155,1.743.623.623,0,0,0,.134.045,1.12,1.12,0,0,1,.4-.074H16.49A1.119,1.119,0,0,1,17.6,72.285l.006.069a1.131,1.131,0,0,1-1.118,1.163H15.258a1.112,1.112,0,0,1-.675-.23,2.126,2.126,0,0,1-1.513-.948,5.233,5.233,0,0,1-.45-2.773,11.237,11.237,0,0,1,.776-3.88,1.237,1.237,0,0,1,.074-.839,9.32,9.32,0,0,1,1.917-2.823,5.306,5.306,0,0,1,1.288-.928,1.956,1.956,0,0,1,.824-.928,11.286,11.286,0,0,1,.707-4.042A15.705,15.705,0,0,0,9.593,70.143c0,7.824,5.716,8.207,13.2,8.207.817,0,1.653,0,2.507,0H41.475c.853,0,1.69,0,2.506,0,7.484,0,13.2-.383,13.2-8.207a15.707,15.707,0,0,0-8.775-14.1Z" transform="translate(0 -20.35)" fill="url(#linear-gradient)"/>
    <path id="Path_46240" data-name="Path 46240" d="M40.865,36.206c7.234,0,13.1-10.877,13.1-18.111a13.1,13.1,0,0,0-26.194,0C27.769,25.329,33.633,36.206,40.865,36.206Z" transform="translate(-7.472)" fill="url(#linear-gradient)"/>
    <circle id="Ellipse_195" data-name="Ellipse 195" cx="1.767" cy="1.767" r="1.767" transform="translate(46.651 41.893)" fill="url(#linear-gradient)"/>
  </g>
</svg>
