<svg xmlns="http://www.w3.org/2000/svg" xmlns:xlink="http://www.w3.org/1999/xlink" width="54" height="53" viewBox="0 0 54 53">
  <defs>
    <linearGradient id="linear-gradient" x1="0.5" x2="0.5" y2="1" gradientUnits="objectBoundingBox">
      <stop offset="0" stop-color="#59afe6"/>
      <stop offset="1" stop-color="#2d5873"/>
    </linearGradient>
  </defs>
  <path id="icons8_Doctor_Male" d="M32,5A24.811,24.811,0,0,0,21.221,7.1l-1.041.439L17.77,23.5l1.74.44a35.112,35.112,0,0,0,7.93.961,6,6,0,1,1,9.121,0,35.112,35.112,0,0,0,7.93-.961l1.74-.44L43.82,7.539,42.779,7.1A24.811,24.811,0,0,0,32,5Zm0,14a2,2,0,1,0,2,2A2,2,0,0,0,32,19ZM18,25.289v.73a6.545,6.545,0,0,0-1,3.48,6.883,6.883,0,0,0,2.221,4.881A20.285,20.285,0,0,0,22.949,40.2l-.443,6.414h0L5,52l.443,2.658A4,4,0,0,0,9.389,58H54.611a4,4,0,0,0,3.945-3.342L59,52,41.5,46.613h0L41.051,40.2a20.285,20.285,0,0,0,3.729-5.818A6.883,6.883,0,0,0,47,29.5a6.545,6.545,0,0,0-1-3.48v-.73L43,26.57l.01.481.34.41A3.44,3.44,0,0,1,44,29.5a3.982,3.982,0,0,1-1.41,2.811l-.359.27-.15.43c-1.75,5.04-7.57,9.31-8.85,9.99H30.77c-1.28-.68-7.1-4.95-8.85-9.99l-.15-.43-.359-.27A3.943,3.943,0,0,1,20,29.5a3.381,3.381,0,0,1,.641-2.02L21,27.06v-.49ZM25.76,43.01C27.86,44.84,29.78,46,30.5,46h3c.72,0,2.64-1.16,4.74-2.99l.418,6.107L32,55l-6.658-5.883Z" transform="translate(-5 -5)" fill="url(#linear-gradient)"/>
</svg>
