<svg xmlns="http://www.w3.org/2000/svg" width="64.969" height="62.508" viewBox="0 0 64.969 62.508">
  <path id="icons8_nurse_call" d="M21.683,2a2.461,2.461,0,0,1,2.46,2.46V21.682a2.461,2.461,0,0,1-2.46,2.46H14.3a2.461,2.461,0,0,1-2.46-2.46V4.46A2.461,2.461,0,0,1,14.3,2ZM52.437,6.921a6.151,6.151,0,1,1-6.151,6.151,6.151,6.151,0,0,1,6.151-6.151ZM17.992,18.607a1.845,1.845,0,1,0,1.845,1.845A1.846,1.846,0,0,0,17.992,18.607Zm45.554.581a2.461,2.461,0,0,1,2.422,2.494V61.047a2.46,2.46,0,1,1-4.921,0v-2.46H6.921v2.46a2.46,2.46,0,1,1-4.921,0v-12.3a2.447,2.447,0,0,1,2.854-2.46H61.048v-24.6a2.461,2.461,0,0,1,2.5-2.494ZM50.687,24.143a5.437,5.437,0,0,1,5.228,6.929L52.975,41.365H41.668l3.792-13.282A5.438,5.438,0,0,1,50.687,24.143ZM40.015,29.063l-3.455,12.3H4.46V36.444a7.38,7.38,0,0,1,7.381-7.381Z" transform="translate(-1.5 -1.5)" fill="#e2f2f3" stroke="rgba(0,0,0,0)" stroke-width="1"/>
</svg>
