<svg xmlns="http://www.w3.org/2000/svg" xmlns:xlink="http://www.w3.org/1999/xlink" width="26.833" height="62.394" viewBox="0 0 26.833 62.394">
  <defs>
    <linearGradient id="linear-gradient" x1="0.5" x2="0.5" y2="1" gradientUnits="objectBoundingBox">
      <stop offset="0" stop-color="#f1a3a3"/>
      <stop offset="1" stop-color="#983333"/>
    </linearGradient>
  </defs>
  <path id="icons8_toilet" d="M43.556,2A6.239,6.239,0,1,0,49.8,8.239,6.239,6.239,0,0,0,43.556,2ZM40.387,17.6a6.245,6.245,0,0,0-6.142,5.124l-4.015,26.3a2.51,2.51,0,0,0,2.48,2.888H34.2v9.359a3.12,3.12,0,0,0,6.239,0V51.915h6.239v9.359a3.12,3.12,0,0,0,6.239,0V51.915H54.53A2.5,2.5,0,0,0,57,49.021l-4.137-26.3A6.248,6.248,0,0,0,46.724,17.6Z" transform="translate(-30.201 -2)" fill="url(#linear-gradient)"/>
</svg>
